<?xml version="1.0" encoding="UTF-8" standalone="no"?>
<!-- Created with Inkscape (http://www.inkscape.org/) -->

<svg
   xmlns:dc="http://purl.org/dc/elements/1.1/"
   xmlns:cc="http://creativecommons.org/ns#"
   xmlns:rdf="http://www.w3.org/1999/02/22-rdf-syntax-ns#"
   xmlns:svg="http://www.w3.org/2000/svg"
   xmlns="http://www.w3.org/2000/svg"
   xmlns:xlink="http://www.w3.org/1999/xlink"
   xmlns:sodipodi="http://sodipodi.sourceforge.net/DTD/sodipodi-0.dtd"
   xmlns:inkscape="http://www.inkscape.org/namespaces/inkscape"
   width="1024"
   height="1024"
   id="svg2"
   version="1.1"
   inkscape:version="0.48.3.1 r9886"
   sodipodi:docname="MeDontLikeFB.svg"
   inkscape:export-filename="/home/cuducos/Downloads/MeDontLikeFB/imgs/sources/MeDontLikeFB.png"
   inkscape:export-xdpi="90"
   inkscape:export-ydpi="90">
  <defs
     id="defs4">
    <linearGradient
       inkscape:collect="always"
       xlink:href="#linearGradient3433"
       id="linearGradient3439"
       x1="777.63275"
       y1="445.97461"
       x2="257.41934"
       y2="-82.025352"
       gradientUnits="userSpaceOnUse"
       gradientTransform="translate(-168,6)" />
    <linearGradient
       inkscape:collect="always"
       id="linearGradient3433">
      <stop
         style="stop-color:#aa0000;stop-opacity:1;"
         offset="0"
         id="stop3435" />
      <stop
         style="stop-color:#aa0000;stop-opacity:0;"
         offset="1"
         id="stop3437" />
    </linearGradient>
    <linearGradient
       inkscape:collect="always"
       id="linearGradient3425">
      <stop
         style="stop-color:#ffaaaa;stop-opacity:1;"
         offset="0"
         id="stop3427" />
      <stop
         style="stop-color:#ffaaaa;stop-opacity:0;"
         offset="1"
         id="stop3429" />
    </linearGradient>
    <linearGradient
       inkscape:collect="always"
       id="linearGradient3391">
      <stop
         style="stop-color:#ff8080;stop-opacity:1;"
         offset="0"
         id="stop3393" />
      <stop
         style="stop-color:#ff8080;stop-opacity:0;"
         offset="1"
         id="stop3395" />
    </linearGradient>
    <linearGradient
       inkscape:collect="always"
       id="linearGradient3383">
      <stop
         style="stop-color:#aa0000;stop-opacity:1;"
         offset="0"
         id="stop3385" />
      <stop
         style="stop-color:#aa0000;stop-opacity:0;"
         offset="1"
         id="stop3387" />
    </linearGradient>
    <linearGradient
       inkscape:collect="always"
       xlink:href="#linearGradient3433"
       id="linearGradient3482"
       gradientUnits="userSpaceOnUse"
       gradientTransform="translate(-1434.0022,-135.51717)"
       x1="777.63275"
       y1="445.97461"
       x2="257.41934"
       y2="-82.025352" />
    <linearGradient
       inkscape:collect="always"
       xlink:href="#linearGradient3425"
       id="linearGradient3484"
       gradientUnits="userSpaceOnUse"
       gradientTransform="translate(-1434.0022,-135.51717)"
       x1="598.30402"
       y1="264.64075"
       x2="1028.7482"
       y2="692.64081" />
    <radialGradient
       inkscape:collect="always"
       xlink:href="#linearGradient3391"
       id="radialGradient3486"
       gradientUnits="userSpaceOnUse"
       gradientTransform="matrix(0.07145223,1.213969,-1.3707455,0.08067983,-231.97225,-583.2862)"
       cx="510.63492"
       cy="518.68848"
       fx="510.63492"
       fy="518.68848"
       r="309.09372" />
    <radialGradient
       inkscape:collect="always"
       xlink:href="#linearGradient3383"
       id="radialGradient3488"
       gradientUnits="userSpaceOnUse"
       gradientTransform="matrix(-0.00923152,-1.6567775,1.7259546,-0.00961701,-1452.2328,1656.598)"
       cx="760.44836"
       cy="495.57962"
       fx="760.44836"
       fy="495.57962"
       r="290.55002" />
  </defs>
  <sodipodi:namedview
     id="base"
     pagecolor="#ffffff"
     bordercolor="#666666"
     borderopacity="1.0"
     inkscape:pageopacity="0.0"
     inkscape:pageshadow="2"
     inkscape:zoom="0.48444416"
     inkscape:cx="341.15435"
     inkscape:cy="503.4337"
     inkscape:document-units="px"
     inkscape:current-layer="layer1"
     showgrid="false"
     inkscape:window-width="1301"
     inkscape:window-height="744"
     inkscape:window-x="65"
     inkscape:window-y="24"
     inkscape:window-maximized="1" />
  <metadata
     id="metadata7">
    <rdf:RDF>
      <cc:Work
         rdf:about="">
        <dc:format>image/svg+xml</dc:format>
        <dc:type
           rdf:resource="http://purl.org/dc/dcmitype/StillImage" />
        <dc:title></dc:title>
      </cc:Work>
    </rdf:RDF>
  </metadata>
  <g
     inkscape:label="Layer 1"
     inkscape:groupmode="layer"
     id="layer1"
     transform="translate(0,-28.362183)">
    <image
       y="247.27507"
       x="259.17508"
       id="image3758"
       xlink:href="file:///home/cuducos/Downloads/MeDontLikeFB/imgs/sources/Facebook_like_thumb.png"
       height="507.49472"
       width="526.14594" />
    <g
       id="g3476"
       transform="matrix(1.5212743,0,0,1.5212742,1633.3965,199.91507)">
      <path
         inkscape:connector-curvature="0"
         id="path2525"
         d="m -975.17267,-14.228003 c -131.38823,131.388233 -131.36613,344.649303 0.0221,476.037543 131.38825,131.38824 344.62723,131.38824 476.01546,0 131.38816,-131.38826 131.41036,-344.64935 0.0221,-476.037583 -131.38824,-131.388247 -344.67144,-131.388207 -476.05968,4e-5 z m 55.57417,148.470323 271.97095,271.97095 c -75.85814,37.20062 -170.14031,24.26986 -233.19056,-38.78039 -63.05057,-63.05057 -75.98171,-157.33222 -38.78039,-233.19056 z m 92.89616,-92.896163 c 75.86339,-37.2191396 170.17601,-24.32255 233.23476,38.7362 63.05844,63.058473 75.95471,157.371543 38.73619,233.234753 L -826.70234,41.346157 z"
         style="fill:url(#linearGradient3482);fill-opacity:1;fill-rule:nonzero;stroke:none;display:inline" />
      <path
         inkscape:connector-curvature="0"
         sodipodi:nodetypes="cssscccsccscc"
         id="path2576"
         d="M -962.55128,-1.6074726 C -1088.9234,124.76463 -1090.4854,328.30049 -966.06407,452.72185 c 124.42137,124.42137 327.93632,122.83839 454.3084,-3.5337 126.37202,-126.37211 127.97632,-329.90833 3.55499,-454.3296926 -124.42135,-124.4213474 -327.97851,-122.8380074 -454.3506,3.53407 z m 40.66195,118.6978126 291.41494,291.41494 c -116.05962,51.24409 -196.46502,24.46408 -256.17201,-35.24292 -59.70732,-59.70732 -93.53739,-149.18128 -35.24293,-256.17202 z m 79.45007,-79.450073 c 95.89374,-51.23925 195.08526,-23.10042 254.80031,36.61463 59.71476,59.714783 89.87489,154.870273 36.61463,254.800313 L -842.43926,37.640267 z"
         style="fill:url(#linearGradient3484);fill-opacity:1;fill-rule:nonzero;stroke:none;display:inline" />
      <path
         inkscape:connector-curvature="0"
         sodipodi:nodetypes="cssscccsccscc"
         id="path2578"
         d="M -953.4638,7.4792574 C -1075.3771,129.39256 -1077.3923,325.2388 -957.98707,444.64401 c 119.40522,119.40521 315.2314,117.36995 437.14468,-4.54334 121.91324,-121.91331 123.96904,-317.76 4.56387,-437.1652126 -119.40521,-119.4051974 -315.27199,-117.3694874 -437.18528,4.5438 z m 28.92676,95.7239926 307.95058,307.95058 c -151.17901,66.76366 -218.79879,25.44794 -276.09866,-31.85192 -57.30016,-57.30017 -105.37663,-139.68605 -31.85192,-276.09866 z m 68.16154,-68.161543 c 117.6399,-64.68891 217.46776,-24.13236 274.77535,33.17523 57.3073,57.307333 100.82859,140.120833 33.17523,274.775353 L -856.3755,35.041707 z"
         style="fill:url(#radialGradient3486);fill-opacity:1;fill-rule:nonzero;stroke:none;display:inline" />
      <path
         inkscape:connector-curvature="0"
         sodipodi:nodetypes="csssccsccsccscc"
         id="path2588"
         d="m -1010.455,376.69468 c 13.40999,24.51251 30.45372,47.51271 51.15472,68.21371 119.40523,119.4052 315.23339,117.38339 437.14667,-4.52991 121.91326,-121.91331 123.97926,-317.78565 4.5741,-437.1908626 -20.7012,-20.7011904 -43.722,-37.7235804 -68.23581,-51.1326534 -5.80527,31.204673 -14.416,61.989223 -25.83149,91.945973 10.494,7.57811 20.1043,15.86166 28.74831,24.50567 57.3073,57.307333 106.17652,157.433993 33.18982,274.755183 L -699.21757,193.7529 c -10.39748,12.50111 -21.44552,24.6275 -33.16772,36.34971 -11.25516,11.25516 -22.89426,21.91849 -34.86921,31.95238 l 149.37631,149.37631 c -128.51234,66.76367 -218.80323,25.45796 -276.1031,-31.8419 -8.83131,-8.83131 -17.45206,-18.26571 -25.43375,-28.39476 -29.67249,11.24341 -60.14877,19.75462 -91.03996,25.50004 z"
         style="fill:url(#radialGradient3488);fill-opacity:1;fill-rule:nonzero;stroke:none;display:inline" />
    </g>
  </g>
</svg>
